<?xml version="1.0" standalone="no"?>
<!DOCTYPE svg PUBLIC "-//W3C//DTD SVG 20010904//EN"
 "http://www.w3.org/TR/2001/REC-SVG-20010904/DTD/svg10.dtd">
<svg version="1.0" xmlns="http://www.w3.org/2000/svg"
 width="1024.000000pt" height="1024.000000pt" viewBox="0 0 1024.000000 1024.000000"
 preserveAspectRatio="xMidYMid meet">
<metadata>
Created by potrace 1.14, written by Peter Selinger 2001-2017
</metadata>
<g transform="translate(0.000000,1024.000000) scale(0.100000,-0.100000)"
fill="#000000" stroke="none">
<path d="M4020 9221 c0 -3 -30 -6 -68 -7 -91 -2 -284 -21 -382 -38 -14 -3 -41
-7 -60 -10 -19 -3 -46 -8 -60 -11 -14 -3 -41 -8 -60 -11 -19 -3 -62 -12 -95
-20 -33 -8 -69 -16 -80 -18 -30 -6 -189 -51 -280 -80 -244 -76 -506 -195 -731
-330 -60 -36 -122 -73 -139 -83 -16 -10 -32 -21 -35 -24 -3 -3 -25 -20 -50
-37 -90 -64 -218 -165 -289 -227 -110 -96 -305 -303 -391 -414 -14 -18 -33
-42 -44 -54 -10 -12 -30 -40 -44 -62 -14 -22 -30 -45 -36 -52 -16 -17 -29 -36
-43 -59 -6 -10 -36 -57 -65 -104 -29 -46 -60 -98 -68 -115 -8 -16 -17 -32 -20
-35 -7 -5 -147 -280 -149 -292 -1 -4 -11 -29 -22 -55 -28 -64 -110 -274 -114
-293 -2 -8 -16 -51 -30 -95 -15 -44 -28 -87 -30 -95 -2 -8 -12 -42 -21 -75 -9
-33 -18 -67 -19 -75 -2 -8 -4 -15 -6 -15 -1 0 -3 -9 -5 -20 -2 -11 -8 -40 -14
-65 -7 -25 -13 -54 -16 -65 -2 -11 -8 -42 -14 -70 -5 -27 -12 -61 -14 -75 -3
-14 -5 -25 -7 -25 -1 0 -2 -11 -4 -25 -1 -14 -5 -45 -9 -70 -12 -67 -14 -80
-21 -135 -12 -90 -13 -99 -19 -170 -4 -38 -9 -86 -12 -105 -23 -191 -23 -864
1 -1095 11 -99 17 -163 20 -200 2 -22 6 -60 10 -85 3 -25 11 -79 16 -120 6
-41 12 -86 15 -100 3 -14 6 -34 8 -45 2 -11 9 -49 16 -85 6 -36 14 -76 17 -90
2 -14 10 -50 18 -80 8 -30 16 -66 19 -80 3 -14 15 -59 26 -100 11 -41 23 -83
25 -93 10 -42 108 -324 126 -361 10 -22 19 -43 19 -47 0 -3 10 -28 22 -55 12
-27 21 -52 20 -56 -1 -5 3 -8 8 -8 5 0 9 -3 8 -7 -3 -10 79 -176 127 -258 19
-33 38 -67 42 -75 10 -20 161 -248 179 -269 7 -9 35 -43 61 -76 26 -33 57 -71
68 -83 11 -13 28 -33 38 -45 72 -86 256 -260 367 -347 36 -28 72 -56 80 -63 8
-7 65 -45 125 -85 61 -40 115 -76 120 -80 6 -4 30 -18 55 -32 25 -13 72 -39
105 -57 33 -18 67 -35 75 -38 8 -4 42 -19 76 -36 34 -16 64 -29 68 -29 3 0 25
-8 49 -19 42 -19 108 -45 117 -47 3 0 12 -3 20 -6 8 -4 24 -9 35 -14 11 -4 22
-8 25 -9 13 -3 219 -67 248 -76 18 -6 45 -12 60 -15 15 -3 54 -11 87 -19 33
-8 96 -21 140 -29 72 -14 98 -18 185 -31 14 -2 45 -7 70 -10 47 -8 66 -10 165
-20 122 -11 204 -16 370 -20 94 -2 172 -5 175 -6 3 -1 9 -1 13 0 5 1 84 3 175
6 156 3 301 11 400 21 23 2 63 6 90 9 91 9 283 35 361 50 9 1 36 6 61 10 25 4
54 9 65 11 11 2 31 6 45 9 14 3 36 7 50 10 14 3 34 8 45 10 11 3 31 7 45 10
14 4 36 8 50 11 14 3 43 10 65 16 22 5 47 12 55 13 8 2 47 13 85 25 39 12 79
22 90 23 11 1 22 4 25 8 6 6 173 59 180 57 3 -1 16 5 30 12 14 8 30 15 35 16
15 3 164 62 214 85 24 11 52 21 61 22 14 1 17 11 16 59 -1 33 3 58 9 58 7 0 7
3 0 8 -12 8 -12 73 0 92 6 9 4 11 -4 5 -10 -6 -11 -3 -2 14 7 11 8 21 3 21
-12 0 -9 93 3 102 7 5 6 8 -1 8 -11 0 -11 71 1 90 6 9 4 11 -4 5 -10 -6 -11
-3 -2 14 7 11 8 21 3 21 -12 0 -9 93 3 102 7 5 6 8 -1 8 -11 0 -11 71 1 90 6
9 4 11 -4 5 -10 -6 -11 -3 -2 14 7 11 8 21 3 21 -12 0 -9 93 3 102 7 5 6 8 -1
8 -11 0 -11 71 1 90 6 9 4 11 -4 5 -10 -6 -11 -3 -2 14 7 11 8 21 3 21 -12 0
-9 93 3 102 7 5 6 8 -1 8 -11 0 -11 71 1 90 6 9 4 11 -4 5 -10 -6 -11 -3 -2
14 7 11 8 21 3 21 -12 0 -9 93 3 102 7 5 6 8 -1 8 -11 0 -11 71 1 90 6 9 4 11
-4 5 -10 -6 -11 -3 -2 14 7 11 8 21 4 21 -5 0 -8 22 -8 50 0 27 5 50 10 50 7
0 7 3 0 8 -6 4 -10 56 -10 120 0 68 4 112 10 112 6 0 4 4 -3 9 -8 4 -14 12
-15 17 -2 10 -8 9 -52 -11 -16 -7 -73 -30 -125 -50 -52 -20 -106 -41 -120 -47
-30 -12 -211 -79 -225 -82 -5 -2 -17 -6 -25 -9 -35 -13 -295 -99 -311 -102
-10 -2 -26 -8 -37 -14 -11 -6 -22 -8 -25 -5 -3 3 -24 -4 -47 -16 -23 -12 -39
-16 -35 -10 6 9 2 9 -12 2 -19 -10 -188 -55 -248 -66 -59 -11 -91 -17 -130
-25 -22 -5 -47 -9 -55 -10 -40 -3 -105 -10 -107 -12 -2 -1 -7 -3 -13 -4 -5 -1
-11 -3 -12 -4 -3 -2 -57 -6 -213 -16 -38 -2 -70 -4 -70 -5 0 -9 -353 3 -450
15 -91 12 -100 13 -100 15 0 1 -12 3 -27 5 -81 11 -358 102 -382 126 -6 5 -18
9 -28 9 -10 0 -18 5 -18 10 0 6 -6 10 -13 10 -7 0 -43 20 -80 44 -37 24 -67
41 -67 38 0 -4 -4 -2 -8 3 -4 6 -29 28 -57 50 -88 71 -180 168 -252 265 -38
52 -73 102 -76 110 -4 8 -16 29 -26 45 -27 41 -77 146 -113 235 -17 41 -34 84
-38 95 -10 23 -24 67 -25 77 0 3 -3 10 -7 14 -5 4 -8 17 -8 28 0 12 -7 39 -14
61 -8 22 -17 54 -20 70 -3 17 -13 64 -22 105 -22 105 -21 102 -39 228 -9 62
-14 120 -11 128 3 7 2 14 -2 14 -4 0 -8 8 -8 18 -2 65 -14 194 -19 202 -3 5
-1 11 5 15 6 4 7 12 3 18 -10 17 -11 457 -1 457 5 0 4 8 -1 19 -6 10 -8 21 -6
23 3 3 7 38 10 79 9 148 14 195 24 269 17 126 21 154 27 180 3 14 8 36 10 50
6 33 39 179 48 215 16 59 20 72 29 83 5 6 7 12 4 12 -3 0 3 26 14 58 11 31 22
64 24 72 4 20 68 168 103 238 41 84 104 188 159 263 26 36 62 84 78 107 17 23
38 44 48 47 9 4 17 11 17 18 0 11 50 59 123 120 22 18 48 40 59 50 12 9 24 17
28 17 3 0 15 8 26 18 68 59 331 174 419 183 2 0 19 5 37 10 18 5 53 12 78 15
25 3 72 8 105 13 73 9 500 2 500 -9 0 -1 20 -3 45 -5 139 -13 222 -26 238 -38
6 -5 12 -7 12 -4 0 2 28 -2 63 -10 34 -7 69 -15 77 -16 8 -2 35 -9 60 -16 25
-7 56 -15 70 -18 13 -2 29 -8 35 -13 5 -4 15 -9 20 -9 11 -1 71 -19 95 -28 18
-8 15 -7 70 -22 25 -7 50 -16 55 -20 6 -4 28 -13 50 -20 41 -13 55 -18 115
-44 19 -9 47 -19 63 -22 15 -4 30 -11 33 -16 3 -5 10 -7 15 -4 5 4 9 1 9 -4 0
-6 3 -10 8 -9 11 2 173 -66 310 -130 47 -22 65 -23 68 -4 0 4 4 16 9 27 27 65
88 222 90 230 2 11 21 59 35 93 14 32 26 62 41 102 6 19 20 53 30 75 9 22 19
49 21 60 1 11 6 23 11 26 4 3 9 15 11 26 3 11 18 52 34 91 17 39 28 73 25 76
-4 3 -1 6 5 6 7 0 12 8 12 18 0 10 3 22 7 26 4 3 8 12 9 19 1 7 11 34 23 59
11 26 21 52 21 57 0 6 11 34 24 63 13 29 29 71 36 93 7 22 16 45 19 50 4 6 20
44 35 85 15 41 34 89 42 107 8 17 14 33 14 36 0 2 8 22 17 43 9 22 17 41 18
44 0 3 4 11 8 18 5 6 6 12 2 12 -3 0 -1 8 4 19 6 10 19 41 30 69 l20 50 -107
47 c-192 85 -206 91 -267 114 -33 13 -69 27 -80 31 -99 40 -343 121 -440 146
-5 1 -58 16 -118 33 -59 17 -110 30 -115 30 -4 -1 -10 0 -14 1 -5 1 -12 4 -18
5 -5 1 -11 3 -12 5 -2 1 -10 3 -18 5 -8 1 -51 10 -95 20 -44 9 -91 19 -105 21
-23 4 -34 6 -100 19 -14 3 -38 7 -55 9 -16 3 -59 9 -95 15 -36 6 -86 13 -112
16 -27 3 -67 7 -90 10 -110 13 -139 15 -218 21 -120 9 -710 13 -710 5z"/>
<path d="M8628 3075 c-2 -2 -32 -6 -68 -9 -161 -16 -286 -48 -417 -107 -149
-66 -300 -194 -373 -314 -13 -22 -29 -43 -34 -47 -6 -4 -7 -8 -2 -8 5 0 2 -8
-6 -17 -16 -20 -57 -122 -73 -183 -1 -3 -5 -17 -9 -31 -37 -129 -48 -407 -22
-544 3 -16 9 -46 13 -65 9 -52 9 -51 27 -105 25 -73 93 -207 122 -238 13 -14
24 -30 24 -35 0 -12 144 -148 180 -170 14 -9 27 -19 30 -22 12 -12 166 -94
180 -95 3 -1 32 -11 65 -24 33 -13 71 -25 85 -27 14 -3 39 -9 55 -14 17 -5 53
-12 80 -15 28 -4 64 -9 80 -12 67 -11 417 -7 439 5 6 3 24 7 40 8 26 2 85 15
176 38 48 13 218 90 230 105 3 3 18 13 33 20 15 8 46 31 67 51 22 20 40 36 40
34 0 -2 24 23 53 54 28 31 57 60 62 64 7 5 7 8 0 8 -6 0 -6 3 1 8 30 21 122
205 139 277 2 11 9 40 16 65 6 25 12 50 13 55 1 6 5 16 9 23 5 7 3 12 -3 12
-6 0 -8 4 -5 10 13 20 16 59 16 195 -1 136 -2 155 -16 240 -3 22 -8 53 -11 68
-9 53 -55 178 -91 245 -139 262 -389 429 -713 477 -20 3 -47 8 -60 11 -25 5
-367 14 -372 9z"/>
</g>
</svg>
