<svg width="16" height="15" viewBox="0 0 16 15" fill="none" xmlns="http://www.w3.org/2000/svg">
<g clip-path="url(#clip0)">
<path d="M6.70117 3.84668C5.89795 3.84668 5.27132 4.17708 4.82129 4.83789C4.37126 5.49301 4.14624 6.39877 4.14624 7.55518C4.14624 9.95914 5.06055 11.1611 6.88916 11.1611C7.44174 11.1611 7.97721 11.0842 8.4956 10.9304C9.014 10.7766 9.53524 10.5915 10.0593 10.375V13.229C9.01685 13.6904 7.83765 13.9211 6.52172 13.9211C4.63615 13.9211 3.18921 13.3742 2.18091 12.2805C1.1783 11.1868 0.677002 9.60596 0.677002 7.53808C0.677002 6.24496 0.919107 5.10848 1.40332 4.12866C1.89322 3.14884 2.59391 2.39689 3.50537 1.87281C4.42252 1.34302 5.49919 1.07812 6.73535 1.07812C8.08545 1.07812 9.37574 1.37151 10.6062 1.95826L9.57226 4.61572C9.11084 4.39926 8.64941 4.21696 8.18799 4.06884C7.72656 3.92073 7.23096 3.84668 6.70117 3.84668Z" fill="#261D1C"/>
<path d="M11.8879 12.3315C11.8879 11.8075 12.0418 11.403 12.3494 11.1182C12.6627 10.8333 13.1155 10.6909 13.708 10.6909C14.272 10.6909 14.7049 10.8333 15.0069 11.1182C15.3088 11.403 15.4598 11.8075 15.4598 12.3315C15.4598 12.8443 15.303 13.2459 14.9898 13.5364C14.6821 13.8213 14.2549 13.9636 13.708 13.9636C13.144 13.9636 12.6997 13.8213 12.375 13.5364C12.0503 13.2515 11.8879 12.8499 11.8879 12.3315Z" fill="#E06158"/>
</g>
<defs>
<clipPath id="clip0">
<rect width="15" height="15" fill="white" transform="translate(0.5)"/>
</clipPath>
</defs>
</svg>
