<svg width="85" height="15" viewBox="0 0 85 15" fill="none" xmlns="http://www.w3.org/2000/svg">
<path d="M6.79931 3.84644C5.9961 3.84644 5.36946 4.17684 4.91944 4.83765C4.4694 5.49276 4.24439 6.39853 4.24439 7.55494C4.24439 9.9589 5.15869 11.1609 6.9873 11.1609C7.53987 11.1609 8.07536 11.084 8.59375 10.9302C9.11214 10.7764 9.63339 10.5912 10.1575 10.3747V13.2288C9.11499 13.6901 7.93579 13.9209 6.61987 13.9209C4.73429 13.9209 3.28735 13.374 2.27905 12.2803C1.27645 11.1865 0.775146 9.60571 0.775146 7.53784C0.775146 6.24471 1.01725 5.10824 1.50147 4.12841C1.99138 3.1486 2.69206 2.39665 3.60351 1.87256C4.52068 1.34278 5.59732 1.07788 6.8335 1.07788C8.1836 1.07788 9.47387 1.37126 10.7043 1.95801L9.67041 4.61548C9.20899 4.39901 8.74756 4.21671 8.28614 4.0686C7.82471 3.92049 7.3291 3.84644 6.79931 3.84644ZM21.6504 8.88794C21.6504 10.4716 21.2231 11.7078 20.3686 12.5964C19.5199 13.4794 18.3292 13.9209 16.7969 13.9209C15.3271 13.9209 14.1565 13.468 13.2849 12.5622C12.419 11.6565 11.9861 10.4317 11.9861 8.88794C11.9861 7.30998 12.4105 6.0852 13.2592 5.21363C14.1137 4.33635 15.31 3.8977 16.8481 3.8977C17.7995 3.8977 18.6397 4.09994 19.3689 4.5044C20.0981 4.90885 20.6591 5.48991 21.0522 6.24756C21.451 6.99951 21.6504 7.87964 21.6504 8.88794ZM15.3784 8.88794C15.3784 9.71965 15.4895 10.3548 15.7116 10.7935C15.9339 11.2264 16.307 11.4429 16.831 11.4429C17.3495 11.4429 17.714 11.2264 17.9247 10.7935C18.1412 10.3548 18.2495 9.71965 18.2495 8.88794C18.2495 8.06193 18.1412 7.43815 17.9247 7.0166C17.7084 6.59505 17.338 6.38427 16.814 6.38427C16.3012 6.38427 15.9339 6.59505 15.7116 7.0166C15.4895 7.43245 15.3784 8.05624 15.3784 8.88794ZM29.6741 13.75V8.46924C29.6741 7.82553 29.5801 7.34131 29.3921 7.0166C29.2097 6.6862 28.9136 6.521 28.5034 6.521C27.9395 6.521 27.5321 6.74601 27.2815 7.19605C27.0309 7.64608 26.9055 8.41797 26.9055 9.51172V13.75H23.5645V4.0686H26.0852L26.5039 5.26489H26.7005C26.9852 4.80916 27.3784 4.46736 27.8796 4.2395C28.3866 4.01164 28.9677 3.8977 29.6227 3.8977C30.6937 3.8977 31.5255 4.20818 32.1179 4.8291C32.7161 5.45004 33.0151 6.32446 33.0151 7.45239V13.75H29.6741ZM42.7649 10.7764C42.7649 11.8131 42.4117 12.5964 41.7054 13.1263C40.999 13.656 39.985 13.9209 38.6634 13.9209C37.9455 13.9209 37.3217 13.881 36.792 13.8013C36.2622 13.7273 35.721 13.5876 35.1685 13.3826V10.708C35.6869 10.9359 36.2536 11.1239 36.8689 11.272C37.4899 11.4201 38.0424 11.4941 38.5266 11.4941C39.2501 11.4941 39.6119 11.3289 39.6119 10.9985C39.6119 10.8276 39.5092 10.6767 39.3042 10.5456C39.1049 10.4089 38.5181 10.1469 37.544 9.75953C36.6552 9.39494 36.0344 8.98194 35.6811 8.52051C35.328 8.05339 35.1514 7.46379 35.1514 6.75171C35.1514 5.85165 35.4989 5.15096 36.1939 4.64966C36.8889 4.14835 37.8715 3.8977 39.1419 3.8977C39.7799 3.8977 40.378 3.96891 40.9362 4.11133C41.5002 4.24805 42.0841 4.45028 42.688 4.71801L41.7822 6.87134C41.3379 6.67196 40.8679 6.5039 40.3724 6.36719C39.8767 6.22477 39.4722 6.15356 39.1589 6.15356C38.612 6.15356 38.3386 6.28744 38.3386 6.55518C38.3386 6.72038 38.4326 6.86279 38.6206 6.98243C38.8142 7.09635 39.3669 7.33276 40.2784 7.69165C40.9562 7.97079 41.4604 8.24423 41.7907 8.51196C42.1269 8.7797 42.3719 9.09586 42.5256 9.46045C42.6851 9.81934 42.7649 10.258 42.7649 10.7764ZM51.5149 13.75L51.0962 12.5451H50.8996C50.6205 12.9895 50.2302 13.3312 49.729 13.5705C49.2334 13.8041 48.6495 13.9209 47.9772 13.9209C46.912 13.9209 46.0831 13.6133 45.4907 12.998C44.8982 12.3771 44.602 11.5027 44.602 10.3747V4.0686H47.9431V9.35791C47.9431 9.99024 48.0314 10.4688 48.208 10.7935C48.3902 11.1182 48.6865 11.2805 49.0966 11.2805C49.672 11.2805 50.0822 11.0555 50.3271 10.6055C50.5721 10.1497 50.6946 9.38355 50.6946 8.30689V4.0686H54.0356V13.75H51.5149ZM59.6839 13.75H56.3427V0.454102H59.6839V13.75ZM66.742 11.2805C67.192 11.2805 67.7302 11.1694 68.3569 10.9473V13.3826C67.9069 13.5763 67.4767 13.713 67.0666 13.7927C66.6622 13.8781 66.1865 13.9209 65.6396 13.9209C64.5174 13.9209 63.7085 13.6475 63.2129 13.1006C62.7172 12.548 62.4695 11.7021 62.4695 10.5628V6.57226H61.2989V5.21363L62.7856 4.1626L63.6486 2.1289H65.8361V4.0686H68.2116V6.57226H65.8361V10.3406C65.8361 10.9672 66.1381 11.2805 66.742 11.2805ZM79.2944 8.88794C79.2944 10.4716 78.8672 11.7078 78.0127 12.5964C77.1639 13.4794 75.9732 13.9209 74.4409 13.9209C72.9712 13.9209 71.8005 13.468 70.929 12.5622C70.0631 11.6565 69.6301 10.4317 69.6301 8.88794C69.6301 7.30998 70.0545 6.0852 70.9034 5.21363C71.7577 4.33635 72.9541 3.8977 74.4922 3.8977C75.4435 3.8977 76.2837 4.09994 77.013 4.5044C77.7421 4.90885 78.3032 5.48991 78.6962 6.24756C79.095 6.99951 79.2944 7.87964 79.2944 8.88794ZM73.0225 8.88794C73.0225 9.71965 73.1335 10.3548 73.3557 10.7935C73.5779 11.2264 73.951 11.4429 74.4751 11.4429C74.9935 11.4429 75.3581 11.2264 75.5689 10.7935C75.7854 10.3548 75.8935 9.71965 75.8935 8.88794C75.8935 8.06193 75.7854 7.43815 75.5689 7.0166C75.3524 6.59505 74.9821 6.38427 74.458 6.38427C73.9452 6.38427 73.5779 6.59505 73.3557 7.0166C73.1335 7.43245 73.0225 8.05624 73.0225 8.88794Z" fill="#261D1C"/>
<path d="M80.7898 12.3315C80.7898 11.8075 80.9437 11.403 81.2513 11.1182C81.5645 10.8333 82.0174 10.6909 82.6099 10.6909C83.1739 10.6909 83.6068 10.8333 83.9088 11.1182C84.2107 11.403 84.3617 11.8075 84.3617 12.3315C84.3617 12.8443 84.2049 13.2459 83.8917 13.5364C83.584 13.8213 83.1568 13.9636 82.6099 13.9636C82.0459 13.9636 81.6015 13.8213 81.2769 13.5364C80.9522 13.2515 80.7898 12.8499 80.7898 12.3315Z" fill="#E06158"/>
</svg>
