<svg width="103" height="18" viewBox="0 0 103 18" fill="none" xmlns="http://www.w3.org/2000/svg">
<path d="M8.65917 4.61573C7.69532 4.61573 6.94335 5.01221 6.40333 5.80518C5.86328 6.59131 5.59327 7.67824 5.59327 9.06593C5.59327 11.9507 6.69043 13.3931 8.88476 13.3931C9.54784 13.3931 10.1904 13.3008 10.8125 13.1162C11.4346 12.9317 12.0601 12.7094 12.689 12.4496V15.8746C11.438 16.4281 10.0229 16.7051 8.44384 16.7051C6.18115 16.7051 4.44482 16.0488 3.23486 14.7364C2.03174 13.4238 1.43018 11.5269 1.43018 9.04541C1.43018 7.49365 1.7207 6.12989 2.30176 4.95409C2.88966 3.77832 3.73047 2.87598 4.82421 2.24707C5.92482 1.61134 7.21678 1.29346 8.7002 1.29346C10.3203 1.29346 11.8686 1.64551 13.3452 2.34961L12.1045 5.53858C11.5508 5.27881 10.9971 5.06005 10.4434 4.88232C9.88965 4.70459 9.29492 4.61573 8.65917 4.61573ZM26.4805 10.6655C26.4805 12.5659 25.9677 14.0494 24.9423 15.1157C23.9239 16.1753 22.495 16.7051 20.6563 16.7051C18.8925 16.7051 17.4878 16.1616 16.4419 15.0746C15.4028 13.9878 14.8833 12.518 14.8833 10.6655C14.8833 8.77198 15.3926 7.30224 16.411 6.25636C17.4364 5.20362 18.872 4.67724 20.7177 4.67724C21.8594 4.67724 22.8676 4.91993 23.7427 5.40528C24.6177 5.89062 25.2909 6.58789 25.7626 7.49707C26.2412 8.39941 26.4805 9.45557 26.4805 10.6655ZM18.9541 10.6655C18.9541 11.6636 19.0874 12.4258 19.3539 12.9522C19.6207 13.4717 20.0684 13.7315 20.6972 13.7315C21.3194 13.7315 21.7568 13.4717 22.0096 12.9522C22.2694 12.4258 22.3994 11.6636 22.3994 10.6655C22.3994 9.67432 22.2694 8.92578 22.0096 8.41992C21.7501 7.91406 21.3056 7.66112 20.6768 7.66112C20.0614 7.66112 19.6207 7.91406 19.3539 8.41992C19.0874 8.91894 18.9541 9.66749 18.9541 10.6655ZM36.1089 16.5V10.1631C36.1089 9.39064 35.9961 8.80957 35.7705 8.41992C35.5516 8.02344 35.1963 7.8252 34.7041 7.8252C34.0274 7.8252 33.5385 8.09521 33.2378 8.63526C32.9371 9.1753 32.7866 10.1016 32.7866 11.4141V16.5H28.7774V4.88232H31.8022L32.3047 6.31787H32.5406C32.8822 5.77099 33.3541 5.36083 33.9555 5.0874C34.5639 4.81397 35.2612 4.67724 36.0472 4.67724C37.3324 4.67724 38.3306 5.04982 39.0415 5.79492C39.7593 6.54005 40.1181 7.58935 40.1181 8.94287V16.5H36.1089ZM51.8179 12.9317C51.8179 14.1757 51.394 15.1157 50.5465 15.7516C49.6988 16.3872 48.482 16.7051 46.8961 16.7051C46.0346 16.7051 45.286 16.6572 44.6504 16.5616C44.0146 16.4728 43.3652 16.3051 42.7022 16.0591V12.8496C43.3243 13.1231 44.0043 13.3487 44.7427 13.5264C45.4879 13.7041 46.1509 13.7929 46.7319 13.7929C47.6001 13.7929 48.0343 13.5947 48.0343 13.1982C48.0343 12.9931 47.911 12.812 47.665 12.6547C47.4259 12.4907 46.7217 12.1763 45.5528 11.7114C44.4862 11.2739 43.7413 10.7783 43.3173 10.2246C42.8936 9.66407 42.6817 8.95655 42.6817 8.10205C42.6817 7.02198 43.0987 6.18115 43.9327 5.57959C44.7667 4.97802 45.9458 4.67724 47.4703 4.67724C48.2359 4.67724 48.9536 4.76269 49.6234 4.9336C50.3002 5.09766 51.0009 5.34034 51.7256 5.66161L50.6386 8.24561C50.1055 8.00635 49.5415 7.80468 48.9469 7.64063C48.352 7.46972 47.8666 7.38427 47.4907 7.38427C46.8344 7.38427 46.5063 7.54493 46.5063 7.86622C46.5063 8.06446 46.6191 8.23535 46.8447 8.37891C47.077 8.51562 47.7403 8.79931 48.8341 9.22998C49.6474 9.56495 50.2525 9.89308 50.6488 10.2144C51.0523 10.5356 51.3463 10.915 51.5307 11.3525C51.7221 11.7832 51.8179 12.3096 51.8179 12.9317ZM62.3179 16.5L61.8154 15.0541H61.5795C61.2446 15.5874 60.7762 15.9974 60.1748 16.2846C59.5801 16.5649 58.8794 16.7051 58.0726 16.7051C56.7944 16.7051 55.7997 16.336 55.0888 15.5976C54.3778 14.8525 54.0224 13.8032 54.0224 12.4496V4.88232H58.0317V11.2295C58.0317 11.9883 58.1377 12.5626 58.3496 12.9522C58.5682 13.3418 58.9238 13.5366 59.4159 13.5366C60.1064 13.5366 60.5986 13.2666 60.8925 12.7266C61.1865 12.1796 61.3335 11.2603 61.3335 9.96827V4.88232H65.3427V16.5H62.3179ZM72.1207 16.5H68.1112V0.544922H72.1207V16.5ZM80.5904 13.5366C81.1304 13.5366 81.7762 13.4033 82.5283 13.1368V16.0591C81.9883 16.2916 81.472 16.4556 80.9799 16.5512C80.4946 16.6537 79.9238 16.7051 79.2675 16.7051C77.9209 16.7051 76.9502 16.377 76.3555 15.7207C75.7606 15.0576 75.4634 14.0425 75.4634 12.6754V7.88671H74.0587V6.25636L75.8427 4.99512L76.8783 2.55468H79.5033V4.88232H82.3539V7.88671H79.5033V12.4087C79.5033 13.1606 79.8657 13.5366 80.5904 13.5366ZM95.6533 10.6655C95.6533 12.5659 95.1406 14.0494 94.1152 15.1157C93.0967 16.1753 91.6678 16.7051 89.8291 16.7051C88.0654 16.7051 86.6606 16.1616 85.6148 15.0746C84.5757 13.9878 84.0561 12.518 84.0561 10.6655C84.0561 8.77198 84.5654 7.30224 85.5841 6.25636C86.6092 5.20362 88.0449 4.67724 89.8906 4.67724C91.0322 4.67724 92.0404 4.91993 92.9156 5.40528C93.7905 5.89062 94.4638 6.58789 94.9354 7.49707C95.414 8.39941 95.6533 9.45557 95.6533 10.6655ZM88.127 10.6655C88.127 11.6636 88.2602 12.4258 88.5268 12.9522C88.7935 13.4717 89.2412 13.7315 89.8701 13.7315C90.4922 13.7315 90.9297 13.4717 91.1827 12.9522C91.4425 12.4258 91.5722 11.6636 91.5722 10.6655C91.5722 9.67432 91.4425 8.92578 91.1827 8.41992C90.9229 7.91406 90.4785 7.66112 89.8496 7.66112C89.2342 7.66112 88.7935 7.91406 88.5268 8.41992C88.2602 8.91894 88.127 9.66749 88.127 10.6655Z" fill="#261D1C"/>
<path d="M97.4478 14.7978C97.4478 14.169 97.6324 13.6836 98.0015 13.3419C98.3774 13 98.9209 12.8291 99.6319 12.8291C100.309 12.8291 100.828 13 101.191 13.3419C101.553 13.6836 101.734 14.169 101.734 14.7978C101.734 15.4132 101.546 15.8951 101.17 16.2437C100.801 16.5856 100.288 16.7563 99.6319 16.7563C98.9551 16.7563 98.4218 16.5856 98.0323 16.2437C97.6426 15.9018 97.4478 15.4199 97.4478 14.7978Z" fill="#E06158"/>
</svg>
